<svg width="605" height="88" viewBox="0 0 605 88" fill="none" xmlns="http://www.w3.org/2000/svg">
<mask id="mask0_1116_62" style="mask-type:alpha" maskUnits="userSpaceOnUse" x="0" y="0" width="605" height="89">
<path fill-rule="evenodd" clip-rule="evenodd" d="M83.424 0.916129C81.6312 0.00268595 79.2844 0.0026858 74.5908 0.0026856L73.4917 0.00268555C68.7981 0.00268534 66.4513 0.00268528 64.6585 0.916128C63.0816 1.71962 61.7995 3.0017 60.996 4.57863C60.0826 6.37137 60.0826 8.71819 60.0826 13.4118V15.1541C60.0826 19.8478 60.0826 22.1946 60.996 23.9873C61.7995 25.5643 63.0816 26.8463 64.6585 27.6498C66.4513 28.5633 68.7981 28.5633 73.4918 28.5633H74.5908C79.2844 28.5633 81.6312 28.5633 83.424 27.6498C85.0009 26.8463 86.283 25.5643 87.0865 23.9873C87.9999 22.1946 87.9999 19.8478 87.9999 15.1541V13.4118C87.9999 8.71819 87.9999 6.37137 87.0865 4.57863C86.283 3.0017 85.0009 1.71962 83.424 0.916129ZM0.00244141 8.8153C0.00244141 3.94822 3.94798 0.00268618 8.81506 0.00268618C13.6821 0.00268618 17.6277 3.94823 17.6277 8.8153V70.3749H79.1873C84.0544 70.3749 87.9999 74.3205 87.9999 79.1876C87.9999 84.0546 84.0544 88.0002 79.1873 88.0002L8.81506 88.0002C4.55637 88.0002 1.00323 84.9794 0.181482 80.9636C0.0640905 80.3899 0.00244141 79.7959 0.00244141 79.1876V79.1849V8.8153ZM38.6621 0.00268618C33.795 0.00268618 29.8495 3.94823 29.8495 8.81531V48.4399C29.8495 53.307 33.795 57.2525 38.6621 57.2525L38.6745 57.2525L79.1873 57.2525C84.0544 57.2525 87.9999 53.307 87.9999 48.4399C87.9999 43.5728 84.0544 39.6273 79.1873 39.6273L47.4747 39.6273V8.8153C47.4747 3.94823 43.5292 0.00268618 38.6621 0.00268618Z" fill="white"/>
<path fill-rule="evenodd" clip-rule="evenodd" d="M588.289 26.4962H573.163V78.4066H588.289V49.4332C588.289 45.8718 589.246 43.2068 590.932 41.4352C592.612 39.6684 595.104 38.6984 598.363 38.6984C600.304 38.6984 602.088 38.9785 603.102 39.4008L604.04 39.7918V26.1375L603.541 26.0013C602.451 25.704 600.976 25.4587 599.401 25.4587C596.307 25.4587 593.646 26.415 591.56 28.2173C590.2 29.3925 589.103 30.9105 588.289 32.7202V26.4962ZM531.651 56.3832H566.431V51.4611C566.431 43.6845 564.065 37.1747 559.75 32.6036C555.431 28.0282 549.218 25.4587 541.655 25.4587C534.087 25.4587 527.825 28.0905 523.46 32.8277C519.1 37.559 516.69 44.3264 516.69 52.4986V52.5457C516.69 60.7627 519.076 67.4996 523.501 72.1872C527.931 76.8797 534.335 79.4441 542.221 79.4441C556.89 79.4441 564.78 72.0596 566.417 64.2199L566.565 63.5102L552.226 61.5115L551.956 62.3196L551.955 62.3248C551.067 64.8533 547.902 67.8079 542.504 67.8079C539.15 67.8079 536.49 66.6875 534.646 64.6632C532.904 62.7508 531.83 59.9658 531.651 56.3832ZM565.754 64.0813C565.707 64.3025 565.656 64.5235 565.599 64.7441C565.656 64.5235 565.707 64.3025 565.754 64.0813ZM514.623 77.8741L515.341 77.7654L512.952 67.0149L512.347 67.0821C511.944 67.1268 511.537 67.2518 511.178 67.3621L511.178 67.3622L511.147 67.3716C510.565 67.5503 510.02 67.7135 509.398 67.7135C507.387 67.7135 506.033 67.3209 505.171 66.5072C504.317 65.7012 503.804 64.3453 503.804 62.0719V38.2268H513.625V26.4962H503.804V14.1404H488.536V26.4962L473.335 26.4962V14.1404H458.067V26.4962H451.041V38.2268H458.067V63.581C458.067 69.1038 459.413 73.1256 462.337 75.746C465.244 78.3512 469.574 79.4442 475.251 79.4442C477.296 79.4442 479.781 78.8119 481.589 78.3518L481.634 78.3404C482.508 78.1179 483.199 77.943 483.654 77.8741L484.339 77.7702L482.458 67.0118L481.826 67.0821C481.419 67.1273 481.016 67.2543 480.664 67.3653L480.634 67.3747C480.071 67.5524 479.547 67.7136 478.929 67.7136C476.919 67.7136 475.564 67.3209 474.702 66.5072C473.848 65.7012 473.335 64.3453 473.335 62.0719V38.2268L488.536 38.2268V63.581C488.536 69.1038 489.881 73.1256 492.805 75.746C495.713 78.3512 500.043 79.4441 505.72 79.4441C507.797 79.4441 510.574 78.7901 512.54 78.327L512.588 78.3157C513.479 78.1059 514.182 77.9409 514.623 77.8741ZM513.855 77.3301C513.452 77.416 512.968 77.5299 512.433 77.656C512.968 77.5298 513.452 77.416 513.855 77.3301ZM483.272 77.2529C483.341 77.2395 483.408 77.2275 483.47 77.217C483.498 77.2123 483.526 77.208 483.552 77.204C483.466 77.2171 483.372 77.2335 483.272 77.2529ZM412.971 56.3832H447.751V51.4611C447.751 43.6845 445.385 37.1747 441.07 32.6036C436.751 28.0282 430.539 25.4587 422.975 25.4587C415.407 25.4587 409.145 28.0905 404.78 32.8277C400.42 37.559 398.01 44.3264 398.01 52.4986V52.5457C398.01 60.7627 400.396 67.4996 404.821 72.1872C409.251 76.8797 415.656 79.4441 423.541 79.4441C438.238 79.4441 446.105 71.5112 447.737 63.695L447.891 62.9565L433.539 61.5327L433.277 62.3196L433.275 62.3248C432.387 64.8533 429.223 67.8079 423.824 67.8079C420.47 67.8079 417.81 66.6875 415.966 64.6632C414.224 62.7508 413.15 59.9658 412.971 56.3832ZM447.074 63.5564C447.027 63.7781 446.976 64.0001 446.919 64.2222C446.976 64.0001 447.027 63.7781 447.074 63.5564ZM365.906 9H350.308V78.4066H395.663V65.3084H365.906V9ZM284.74 26.4962H269.614V78.4066H284.74V47.2167C284.74 44.5026 285.58 42.2565 286.988 40.6973C288.391 39.1438 290.397 38.2268 292.834 38.2268C295.235 38.2268 297.082 38.9788 298.331 40.2967C299.585 41.6191 300.315 43.5925 300.315 46.1792V78.4066H314.922V46.9809C314.922 44.3125 315.739 42.1279 317.12 40.6179C318.496 39.1136 320.478 38.2268 322.922 38.2268C325.448 38.2268 327.308 38.9826 328.546 40.34C329.792 41.7073 330.497 43.7844 330.497 46.6036V78.4066H345.623V43.161C345.623 37.9182 343.909 33.4837 340.868 30.3563C337.826 27.2273 333.505 25.4587 328.392 25.4587C321.283 25.4587 315.334 29.0835 312.621 34.9321C311.645 32.1547 310.024 29.9152 307.87 28.3105C305.353 26.4354 302.152 25.4587 298.493 25.4587C292.361 25.4587 287.373 28.4277 284.74 33.1592V26.4962ZM331.175 77.7289H344.945V43.161L344.945 77.7289L331.175 77.7289ZM119 9V78.4066H164.355V65.3084H134.598V9H119ZM133.92 9.67776H133.92V65.9862L133.92 9.67776ZM119.678 77.7289H163.678V65.9862L163.678 77.7289L119.678 77.7289ZM552.549 47.0281C552.521 46.7985 552.49 46.5726 552.455 46.3503C552.49 46.5726 552.521 46.7985 552.549 47.0281ZM548.571 39.593C550.147 41.1138 551.281 43.3572 551.768 46.3503H531.88C532.393 43.428 533.564 41.1866 535.173 39.6482C536.916 37.9821 539.219 37.0949 541.891 37.0949C544.594 37.0949 546.869 37.9513 548.571 39.593ZM429.891 39.593C431.467 41.1138 432.601 43.3572 433.088 46.3503H413.201C413.713 43.428 414.884 41.1866 416.493 39.6482C418.236 37.9821 420.539 37.0949 423.211 37.0949C425.914 37.0949 428.189 37.9513 429.891 39.593ZM192.827 25.4587C185.129 25.4587 178.693 28.0003 174.183 32.6749C169.675 37.3473 167.155 44.0841 167.155 52.3571V52.4514C167.155 60.8125 169.612 67.5745 174.099 72.2502C178.589 76.9289 185.039 79.4441 192.874 79.4441C204.162 79.4441 212.591 74.1801 216.382 64.8274C218.145 69.1896 220.926 72.6854 224.573 75.1642C228.698 77.9673 233.892 79.4441 239.897 79.4441C247.685 79.4441 254.135 76.9407 258.636 72.2688C263.135 67.5995 265.617 60.8374 265.617 52.4514V52.3571C265.617 44.0369 263.085 37.2991 258.557 32.6379C254.029 27.9751 247.57 25.4587 239.85 25.4587C228.671 25.4587 220.198 30.822 216.389 40.157C212.571 30.7853 204.053 25.4587 192.827 25.4587ZM192.827 37.6137C195.961 37.6137 198.528 38.9268 200.333 41.3867C202.154 43.8689 203.232 47.5671 203.232 52.3571V52.4514C203.232 57.2927 202.176 61.0154 200.377 63.5087C198.595 65.9775 196.054 67.2891 192.921 67.2891C189.737 67.2891 187.172 65.985 185.381 63.5242C183.572 61.0381 182.517 57.3171 182.517 52.4514V52.3571C182.517 47.5657 183.583 43.8666 185.387 41.3843C187.176 38.9249 189.719 37.6137 192.827 37.6137ZM239.85 37.6137C242.984 37.6137 245.551 38.9268 247.356 41.3867C249.177 43.8689 250.255 47.5671 250.255 52.3571V52.4514C250.255 57.2927 249.199 61.0154 247.4 63.5087C245.619 65.9775 243.077 67.2891 239.944 67.2891C236.76 67.2891 234.195 65.985 232.405 63.5242C230.595 61.0381 229.54 57.3171 229.54 52.4514V52.3571C229.54 47.5657 230.606 43.8666 232.411 41.3843C234.199 38.9249 236.742 37.6137 239.85 37.6137Z" fill="white"/>
</mask>
<g mask="url(#mask0_1116_62)">
<rect x="-44" y="-55" width="668" height="143" fill="white"/>
</g>
</svg>
