<svg width="2147" height="312" viewBox="0 0 2147 312" fill="none" xmlns="http://www.w3.org/2000/svg">
<path fill-rule="evenodd" clip-rule="evenodd" d="M2077.24 77.4442H2010.28V307.218H2077.24V178.972C2077.24 163.208 2081.48 151.411 2088.94 143.57C2096.37 135.749 2107.4 131.455 2121.83 131.455C2130.42 131.455 2138.32 132.695 2142.8 134.565L2146.96 136.295V75.8566L2144.75 75.2537C2139.92 73.9379 2133.39 72.8518 2126.42 72.8518C2112.73 72.8518 2100.95 77.0849 2091.71 85.0627C2085.69 90.2642 2080.84 96.9837 2077.24 104.994V77.4442ZM1826.54 209.735H1980.49V187.948C1980.49 153.526 1970.02 124.711 1950.92 104.478C1931.8 84.2253 1904.3 72.8518 1870.82 72.8518C1837.32 72.8518 1809.6 84.5014 1790.28 105.47C1770.98 126.412 1760.32 156.367 1760.32 192.54V192.749C1760.32 229.12 1770.87 258.94 1790.46 279.689C1810.07 300.459 1838.42 311.811 1873.32 311.811C1938.26 311.811 1973.18 279.124 1980.42 244.423L1981.08 241.281L1917.61 232.434L1916.42 236.011L1916.41 236.034C1912.48 247.226 1898.47 260.304 1874.58 260.304C1859.73 260.304 1847.96 255.345 1839.8 246.385C1832.08 237.92 1827.33 225.592 1826.54 209.735ZM1751.17 304.861L1754.34 304.38L1743.77 256.794L1741.09 257.092C1739.31 257.29 1737.51 257.843 1735.92 258.331L1735.92 258.332L1735.78 258.373C1733.2 259.164 1730.79 259.887 1728.04 259.887C1719.14 259.887 1713.14 258.149 1709.33 254.547C1705.55 250.979 1703.28 244.978 1703.28 234.915V129.368H1746.75V77.4442H1703.28V22.7531H1635.7V77.4442L1568.41 77.4442V22.7532H1500.83V77.4442H1469.73V129.368H1500.83V241.595C1500.83 266.041 1506.79 283.843 1519.73 295.441C1532.6 306.973 1551.77 311.811 1576.89 311.811C1585.94 311.811 1596.94 309.012 1604.95 306.975L1605.14 306.925C1609.02 305.94 1612.07 305.166 1614.08 304.861L1617.12 304.401L1608.79 256.78L1605.99 257.092C1604.19 257.292 1602.41 257.854 1600.85 258.345L1600.72 258.387C1598.23 259.174 1595.91 259.887 1593.17 259.887C1584.27 259.887 1578.28 258.149 1574.46 254.547C1570.68 250.979 1568.41 244.978 1568.41 234.915V129.368L1635.7 129.368V241.595C1635.7 266.041 1641.65 283.843 1654.59 295.441C1667.46 306.973 1686.63 311.811 1711.76 311.811C1720.95 311.811 1733.24 308.916 1741.95 306.866L1742.16 306.816C1746.1 305.887 1749.22 305.157 1751.17 304.861ZM1301.22 209.735H1455.17V187.948C1455.17 153.526 1444.7 124.711 1425.6 104.478C1406.48 84.2253 1378.98 72.8518 1345.5 72.8518C1312 72.8518 1284.29 84.5014 1264.96 105.47C1245.67 126.412 1235 156.367 1235 192.54V192.749C1235 229.12 1245.56 258.94 1265.14 279.689C1284.75 300.459 1313.1 311.811 1348.01 311.811C1413.06 311.811 1447.88 276.697 1455.11 242.099L1455.79 238.83L1392.26 232.528L1391.1 236.011L1391.09 236.034C1387.16 247.226 1373.15 260.304 1349.26 260.304C1334.41 260.304 1322.64 255.345 1314.48 246.385C1306.76 237.92 1302.01 225.592 1301.22 209.735ZM1023.85 0V307.218H1224.61V249.241H1092.89V0H1023.85ZM666.671 77.4442V307.218H733.624V169.161C733.624 157.147 737.342 147.205 743.575 140.303C749.784 133.427 758.665 129.368 769.45 129.368C780.078 129.368 788.253 132.697 793.784 138.53C799.334 144.384 802.563 153.119 802.563 164.568V307.218H867.22V168.117C867.22 156.306 870.837 146.636 876.95 139.952C883.039 133.293 891.813 129.368 902.629 129.368C913.811 129.368 922.046 132.714 927.523 138.722C933.04 144.774 936.16 153.968 936.16 166.447V307.218H1003.11V151.209C1003.11 128.002 995.528 108.373 982.068 94.5305C968.601 80.6802 949.475 72.8518 926.844 72.8518C895.376 72.8518 869.045 88.8965 857.035 114.785C852.713 102.491 845.539 92.5781 836.006 85.475C824.866 77.1753 810.694 72.8518 794.5 72.8518C767.358 72.8518 745.278 85.9939 733.624 106.937V77.4442H666.671ZM0 0V307.218H200.759V249.241H69.0408V0H0ZM1901.43 135.415C1908.41 142.147 1913.43 152.077 1915.58 165.326H1827.55C1829.82 152.391 1835.01 142.469 1842.13 135.66C1849.84 128.285 1860.04 124.358 1871.86 124.358C1883.83 124.358 1893.9 128.149 1901.43 135.415ZM1376.11 135.415C1383.09 142.147 1388.11 152.077 1390.27 165.326H1302.24C1304.5 152.391 1309.69 142.469 1316.81 135.66C1324.52 128.285 1334.72 124.358 1346.54 124.358C1358.51 124.358 1368.58 128.149 1376.11 135.415ZM213.15 192.331C213.15 229.34 224.028 259.271 243.888 279.967C263.76 300.677 292.311 311.811 326.993 311.811C376.956 311.811 414.268 288.51 431.047 247.112C438.851 266.42 451.16 281.894 467.304 292.866C485.561 305.273 508.551 311.811 535.133 311.811C569.606 311.811 598.154 300.73 618.078 280.05C637.99 259.382 648.977 229.45 648.977 192.331V191.914C648.977 155.086 637.769 125.262 617.73 104.63C597.685 83.9904 569.094 72.8518 534.925 72.8518C485.444 72.8518 447.938 96.592 431.078 137.912C414.178 96.4296 376.474 72.8518 326.784 72.8518C292.708 72.8518 264.222 84.102 244.258 104.793C224.305 125.475 213.15 155.295 213.15 191.914V192.331ZM372.839 192.331C372.839 213.76 368.167 230.238 360.203 241.274C352.318 252.202 341.067 258.008 327.202 258.008C313.105 258.008 301.754 252.236 293.828 241.343C285.82 230.339 281.147 213.868 281.147 192.331V191.914C281.147 170.705 285.866 154.332 293.854 143.344C301.77 132.458 313.027 126.654 326.784 126.654C340.655 126.654 352.019 132.466 360.008 143.355C368.07 154.342 372.839 170.712 372.839 191.914V192.331ZM580.98 192.331C580.98 213.76 576.308 230.238 568.344 241.274C560.458 252.202 549.207 258.008 535.342 258.008C521.245 258.008 509.894 252.236 501.968 241.343C493.961 230.339 489.287 213.868 489.287 192.331V191.914C489.287 170.705 494.006 154.332 501.995 143.344C509.91 132.458 521.167 126.654 534.925 126.654C548.796 126.654 560.159 132.466 568.149 143.355C576.211 154.342 580.98 170.712 580.98 191.914V192.331Z" fill="#149664"/>
</svg>
